<svg width="60" height="60" viewBox="0 0 60 60" fill="none" xmlns="http://www.w3.org/2000/svg">
<g clip-path="url(#clip0_267_56)">
<g filter="url(#filter0_d_267_56)">
<path d="M3.98437 0.128906C2.60156 0.398438 1.11328 1.57031 0.527344 2.84766C0.105469 3.76172 0 4.5 0 6.51562C0 8.22656 0.0117187 8.32031 0.28125 8.625C0.492187 8.87109 0.65625 8.95312 0.996094 8.95312C1.33594 8.95312 1.5 8.87109 1.71094 8.625C1.98047 8.32031 1.99219 8.23828 1.99219 6.44531C1.99219 4.26562 2.15625 3.62109 2.90625 2.89453C3.66797 2.14453 4.27734 1.99219 6.44531 1.99219C8.23828 1.99219 8.32031 1.98047 8.625 1.71094C8.87109 1.5 8.95312 1.33594 8.95312 0.996094C8.95312 0.65625 8.87109 0.492188 8.625 0.28125C8.32031 0.0117188 8.25 0 6.41016 0.0117188C5.36719 0.0234375 4.27734 0.0703125 3.98437 0.128906Z" fill="url(#paint0_linear_267_56)"/>
<path d="M51.375 0.28125C50.918 0.667969 50.918 1.32422 51.375 1.71094C51.6797 1.98047 51.7617 1.99219 53.5547 1.99219C55.7344 1.99219 56.3789 2.15625 57.1055 2.90625C57.8555 3.66797 58.0078 4.27734 58.0078 6.44531C58.0078 8.23828 58.0195 8.32031 58.2891 8.625C58.6758 9.08203 59.332 9.08203 59.7188 8.625C59.9883 8.32031 60 8.22656 60 6.51562C60 5.53125 59.9414 4.44141 59.8828 4.10156C59.5078 2.10938 57.8906 0.492188 55.9102 0.117188C55.5703 0.0585938 54.4688 0 53.4844 0C51.7734 0 51.6797 0.0117188 51.375 0.28125Z" fill="url(#paint1_linear_267_56)"/>
<path d="M5.2033 4.20696C4.23064 4.65227 3.93767 5.3554 4.00798 7.18352C4.04314 8.28509 4.0783 8.46087 4.30095 8.69524C4.66423 9.0468 5.28533 9.0468 5.68376 8.6718C5.96501 8.41399 5.97673 8.33196 5.97673 7.18352V5.97649H7.18376C8.3322 5.97649 8.41423 5.96477 8.67205 5.68352C9.04705 5.28509 9.04705 4.66399 8.69548 4.30071C8.46111 4.06634 8.29705 4.0429 7.05486 4.00774C5.90642 3.9843 5.60173 4.01946 5.2033 4.20696Z" fill="url(#paint2_linear_267_56)"/>
<path d="M51.5626 4.13665C50.9532 4.44134 50.8594 5.17962 51.3516 5.70696C51.586 5.95305 51.7149 5.97649 52.8165 5.97649H54.0235V7.18352C54.0235 8.33196 54.0352 8.41399 54.3165 8.6718C54.7149 9.0468 55.336 9.0468 55.6993 8.69524C55.9219 8.46087 55.9571 8.28509 55.9923 7.18352C56.0626 5.3554 55.7696 4.65227 54.7969 4.20696C54.211 3.93743 52.043 3.89055 51.5626 4.13665Z" fill="url(#paint3_linear_267_56)"/>
<path d="M28.1249 8.08594C23.8358 8.63672 20.3554 10.7461 18.9491 13.6289C18.2929 14.9766 18.164 15.6445 18.0819 17.9531L18.0116 20.0391H17.3202C16.3007 20.0391 15.8085 20.332 15.3866 21.1758C15.0702 21.8203 15.0585 21.9258 15.0585 23.4961L15.0702 25.1367L15.5624 26.1562C16.1601 27.3984 17.0272 28.3711 18.0702 28.9805C18.7382 29.3672 18.8202 29.4609 18.7733 29.707L18.7265 30H11.2851C3.42177 30 3.3163 30.0117 3.11708 30.5273C2.96474 30.9375 3.04677 31.418 3.33974 31.6992L3.62099 31.9922H29.9765H56.3319L56.6483 31.6992C56.953 31.418 57.0468 30.9609 56.8827 30.5273C56.6835 30.0117 56.578 30 48.6913 30C44.2499 30 41.2499 29.9531 41.2499 29.8945C41.2499 29.8359 41.2147 29.707 41.1796 29.6133C41.1444 29.4961 41.3319 29.3203 41.8007 29.0625C43.3358 28.1953 44.6483 26.3437 44.8827 24.7266C45.2108 22.4297 44.7772 20.7187 43.746 20.2266C43.5233 20.1211 43.0546 20.0391 42.6679 20.0391H41.9882L41.9179 17.9531C41.8358 15.6445 41.7069 14.9766 41.0507 13.6289C39.4569 10.3477 35.3319 8.17969 30.4101 8.02734C29.578 8.0039 28.5468 8.02734 28.1249 8.08594ZM32.7538 10.3008C36.5624 11.1328 38.8476 12.8906 39.6913 15.6445C39.8788 16.2656 39.9022 16.7695 39.9022 19.7461C39.8905 22.9687 39.8788 23.2266 39.5624 24.8437C39.3397 26.0039 39.2226 27.0937 39.1757 28.2656L39.1054 30H29.953H20.8007L20.789 28.3828C20.789 27.1289 20.7069 26.3789 20.4491 24.9609C20.121 23.2031 20.1093 23.0156 20.1093 19.6289C20.1093 16.4297 20.1327 16.0547 20.3436 15.4687C20.9296 13.8516 21.6679 12.8789 23.0155 11.9766C25.6405 10.2187 29.4022 9.57422 32.7538 10.3008ZM17.9296 22.2656C18.0819 22.418 18.164 22.6523 18.164 22.9453C18.164 23.2031 18.2929 24.1758 18.4569 25.1367C18.621 26.0859 18.7382 26.8945 18.703 26.918C18.5976 27.0352 17.6952 26.0039 17.4022 25.4297C17.0624 24.75 16.9218 23.6953 17.039 22.6875C17.121 22.0898 17.1561 22.0312 17.414 22.0312C17.5663 22.0312 17.8007 22.1367 17.9296 22.2656ZM42.9608 22.6875C43.078 23.6367 42.9374 24.6914 42.5976 25.3945C42.3046 25.9687 41.4022 27.0352 41.2968 26.918C41.2616 26.8945 41.3788 26.0859 41.5429 25.1367C41.7069 24.1758 41.8358 23.2031 41.8358 22.9453C41.8358 22.4297 42.1522 22.0312 42.5858 22.0312C42.8436 22.0312 42.8788 22.0898 42.9608 22.6875Z" fill="url(#paint4_linear_267_56)"/>
<path d="M20.8006 34.2773C20.5897 34.4766 20.5077 34.6875 20.5077 35.0039C20.5077 35.4023 20.5897 35.5195 21.2694 36.1523L22.0311 36.8672V37.6289V38.3789L21.5272 38.6836C20.2498 39.4922 18.9842 40.0195 16.9686 40.6055C15.41 41.0742 14.9061 41.2969 12.0702 42.8555C11.0038 43.4414 9.785 44.0859 9.36313 44.2852C8.40219 44.7422 7.535 45.4805 7.25375 46.1133C6.96078 46.7344 6.93735 49.1484 7.20688 49.9336C7.46469 50.6836 7.99203 51.2578 8.76547 51.6445L9.43344 51.9727H29.9998H50.5663L51.2342 51.6445C52.0077 51.2578 52.535 50.6836 52.7928 49.9336C53.0623 49.1484 53.0389 46.7344 52.7459 46.1133C52.453 45.4688 51.5975 44.7422 50.5311 44.2383C50.0506 44.0039 48.9022 43.3945 47.9881 42.8906C45.3045 41.4141 44.5194 41.0508 42.9959 40.6055C41.2381 40.0898 40.3475 39.7383 39.2928 39.1523C37.8866 38.3789 37.9686 38.4727 37.9686 37.6289V36.8672L38.7303 36.1523C39.3748 35.5547 39.492 35.3789 39.492 35.0625C39.492 34.8516 39.4452 34.582 39.3748 34.4648C39.2225 34.1836 38.6248 33.9375 38.2733 34.0312C37.8514 34.1367 35.5311 36.4805 34.5936 37.7344C33.6678 38.9883 33.0233 39.6562 32.5428 39.832C32.1092 39.9961 27.8905 39.9961 27.4569 39.832C26.9881 39.6562 26.3436 39 25.4295 37.793C24.4569 36.4805 23.6014 35.543 22.5819 34.6641C21.6795 33.8789 21.2694 33.7969 20.8006 34.2773ZM25.2889 40.7695C25.5819 41.0508 26.1092 41.4141 26.4725 41.5898C27.1053 41.8828 27.1991 41.8945 29.742 41.9297C32.66 41.9766 33.1522 41.8945 34.1483 41.2383C34.453 41.0273 34.9803 40.5234 35.3084 40.1016L35.9178 39.3516L35.9764 40.875C36.0233 42.1406 36.0702 42.4336 36.2577 42.6328C36.6795 43.1016 37.4295 43.0664 37.8163 42.5508C37.8983 42.4453 37.9686 42.0117 37.9686 41.5664C37.9686 41.1328 38.0038 40.7812 38.0623 40.7812C38.1092 40.7812 38.4139 40.9453 38.7538 41.1328L39.3514 41.4727L39.4452 42.2578C39.6327 44.0273 39.2225 46.5352 38.5194 47.8594C38.1209 48.6094 37.3827 49.4297 36.7733 49.8047C36.3983 50.0273 36.1991 50.0391 29.9998 50.0391C22.7577 50.0391 23.3788 50.1211 22.3123 49.0195C21.0584 47.6953 20.3202 44.918 20.5663 42.3633L20.6483 41.4727L21.2459 41.1328C21.5858 40.9453 21.8905 40.7812 21.9491 40.7812C21.9959 40.7812 22.0311 41.1445 22.0311 41.5781C22.0311 42.2227 22.078 42.4336 22.2655 42.6328C22.5819 42.9727 23.0038 43.0664 23.3905 42.8672C23.9178 42.6211 24.0233 42.2695 24.0233 40.7227L24.035 39.3164L24.3983 39.7852C24.6092 40.043 25.0077 40.4883 25.2889 40.7695ZM18.5506 43.793C18.6678 46.1133 19.1014 47.7656 19.9217 49.1367C20.1795 49.5586 20.3905 49.9336 20.3905 49.9688C20.3905 50.0977 10.2655 50.0391 9.82016 49.9102C9.16391 49.7344 9.01157 49.3477 9.04672 47.9648L9.08188 46.8398L9.60922 46.4883C10.0897 46.1719 11.4842 45.4219 14.9413 43.582C16.0077 43.0195 17.8358 42.3398 18.3514 42.3164C18.4334 42.3047 18.5038 42.832 18.5506 43.793ZM43.1248 42.7266C43.6053 42.8789 45.035 43.5586 46.2889 44.25C47.5428 44.9297 48.9373 45.6797 49.3944 45.9023C49.8397 46.1367 50.3905 46.4531 50.5897 46.6172L50.9764 46.8984V48.0117C50.9764 49.2891 50.8123 49.7109 50.2616 49.9102C49.8748 50.0391 39.6092 50.1094 39.6092 49.9688C39.6092 49.9336 39.8202 49.5586 40.078 49.1367C40.8983 47.7656 41.3319 46.1133 41.4491 43.793L41.5194 42.293L41.8827 42.375C42.0819 42.4102 42.6444 42.5742 43.1248 42.7266Z" fill="url(#paint5_linear_267_56)"/>
<path d="M0.632812 51.0938C0.0703125 51.3164 0 51.6094 0 53.5078C0 54.4805 0.0585938 55.5703 0.117188 55.9102C0.492188 57.8906 2.10938 59.5078 4.10156 59.8828C4.44141 59.9414 5.53125 60 6.51562 60C8.22656 60 8.32031 59.9883 8.625 59.7188C9.08203 59.332 9.08203 58.6758 8.625 58.2891C8.32031 58.0195 8.23828 58.0078 6.44531 58.0078C4.27734 58.0078 3.66797 57.8555 2.90625 57.1055C2.15625 56.3789 1.99219 55.7344 1.99219 53.5547C1.99219 51.7852 1.98047 51.6797 1.73438 51.3984C1.42969 51.0586 0.996094 50.9414 0.632812 51.0938Z" fill="url(#paint6_linear_267_56)"/>
<path d="M4.57031 51.1289C4.10156 51.3633 3.98438 51.75 3.98438 53.0859C3.99609 55.4648 4.66406 56.0742 7.18359 55.9922C8.28516 55.957 8.46094 55.9219 8.69531 55.6992C9.04688 55.3359 9.04688 54.7148 8.67188 54.3164C8.41406 54.0351 8.33203 54.0234 7.18359 54.0234H5.97656V52.8164C5.97656 51.7148 5.95313 51.5859 5.71875 51.3516C5.36719 51.0351 4.93359 50.9414 4.57031 51.1289Z" fill="url(#paint7_linear_267_56)"/>
<path d="M54.7266 51.0586C54.6329 51.0938 54.4337 51.2344 54.293 51.3633C54.0469 51.5859 54.0235 51.7031 54.0235 52.8164V54.0234H52.8165C51.668 54.0234 51.586 54.0352 51.3282 54.3164C50.9532 54.7149 50.9532 55.3359 51.3048 55.6992C51.5391 55.9336 51.7149 55.957 52.8634 55.9922C54.3634 56.0391 54.9962 55.875 55.4766 55.3008C55.9219 54.7734 56.0391 54.2109 55.9923 52.8164C55.9688 51.7617 55.9219 51.5391 55.7227 51.3399C55.4649 51.082 54.9962 50.9531 54.7266 51.0586Z" fill="url(#paint8_linear_267_56)"/>
<path d="M58.6406 51.0938C58.0781 51.3164 58.0078 51.6094 58.0078 53.5781C58.0078 55.7344 57.8437 56.3789 57.0937 57.1055C56.332 57.8555 55.7227 58.0078 53.5547 58.0078C51.7617 58.0078 51.6797 58.0195 51.375 58.2891C51.1289 58.5 51.0469 58.6641 51.0469 59.0039C51.0469 59.3438 51.1289 59.5078 51.375 59.7188C51.6797 59.9883 51.7734 60 53.4844 60C54.4687 60 55.5586 59.9414 55.8984 59.8828C57.8906 59.5078 59.5078 57.8906 59.8828 55.9102C59.9414 55.5703 60 54.4688 60 53.4844C60 51.7969 59.9883 51.6797 59.7422 51.3984C59.4375 51.0586 59.0039 50.9414 58.6406 51.0938Z" fill="url(#paint9_linear_267_56)"/>
</g>
</g>
<defs>
<filter id="filter0_d_267_56" x="-4" y="0" width="68" height="68" filterUnits="userSpaceOnUse" color-interpolation-filters="sRGB">
<feFlood flood-opacity="0" result="BackgroundImageFix"/>
<feColorMatrix in="SourceAlpha" type="matrix" values="0 0 0 0 0 0 0 0 0 0 0 0 0 0 0 0 0 0 127 0" result="hardAlpha"/>
<feOffset dy="4"/>
<feGaussianBlur stdDeviation="2"/>
<feComposite in2="hardAlpha" operator="out"/>
<feColorMatrix type="matrix" values="0 0 0 0 0 0 0 0 0 0 0 0 0 0 0 0 0 0 0.25 0"/>
<feBlend mode="normal" in2="BackgroundImageFix" result="effect1_dropShadow_267_56"/>
<feBlend mode="normal" in="SourceGraphic" in2="effect1_dropShadow_267_56" result="shape"/>
</filter>
<linearGradient id="paint0_linear_267_56" x1="8.67334" y1="8.56181" x2="0.176023" y2="0.27996" gradientUnits="userSpaceOnUse">
<stop stop-color="#9248F0" stop-opacity="0.92"/>
<stop offset="0.489583" stop-color="#7A7FF5"/>
<stop offset="1" stop-color="#ECECEC" stop-opacity="0.96"/>
</linearGradient>
<linearGradient id="paint1_linear_267_56" x1="59.7198" y1="8.57543" x2="51.2004" y2="0.280244" gradientUnits="userSpaceOnUse">
<stop stop-color="#9248F0" stop-opacity="0.92"/>
<stop offset="0.489583" stop-color="#7A7FF5"/>
<stop offset="1" stop-color="#ECECEC" stop-opacity="0.96"/>
</linearGradient>
<linearGradient id="paint2_linear_267_56" x1="8.80135" y1="8.73929" x2="4.09427" y2="4.15282" gradientUnits="userSpaceOnUse">
<stop stop-color="#9248F0" stop-opacity="0.92"/>
<stop offset="0.489583" stop-color="#7A7FF5"/>
<stop offset="1" stop-color="#ECECEC" stop-opacity="0.96"/>
</linearGradient>
<linearGradient id="paint3_linear_267_56" x1="55.847" y1="8.73818" x2="51.1163" y2="4.14494" gradientUnits="userSpaceOnUse">
<stop stop-color="#9248F0" stop-opacity="0.92"/>
<stop offset="0.489583" stop-color="#7A7FF5"/>
<stop offset="1" stop-color="#ECECEC" stop-opacity="0.96"/>
</linearGradient>
<linearGradient id="paint4_linear_267_56" x1="55.2776" y1="30.9433" x2="38.0605" y2="-6.7613" gradientUnits="userSpaceOnUse">
<stop stop-color="#9248F0" stop-opacity="0.92"/>
<stop offset="0.489583" stop-color="#7A7FF5"/>
<stop offset="1" stop-color="#ECECEC" stop-opacity="0.96"/>
</linearGradient>
<linearGradient id="paint5_linear_267_56" x1="51.5448" y1="51.1855" x2="39.7085" y2="21.7455" gradientUnits="userSpaceOnUse">
<stop stop-color="#9248F0" stop-opacity="0.92"/>
<stop offset="0.489583" stop-color="#7A7FF5"/>
<stop offset="1" stop-color="#ECECEC" stop-opacity="0.96"/>
</linearGradient>
<linearGradient id="paint6_linear_267_56" x1="8.68753" y1="59.6075" x2="0.164303" y2="51.3124" gradientUnits="userSpaceOnUse">
<stop stop-color="#9248F0" stop-opacity="0.92"/>
<stop offset="0.489583" stop-color="#7A7FF5"/>
<stop offset="1" stop-color="#ECECEC" stop-opacity="0.96"/>
</linearGradient>
<linearGradient id="paint7_linear_267_56" x1="8.80076" y1="55.782" x2="4.08254" y2="51.183" gradientUnits="userSpaceOnUse">
<stop stop-color="#9248F0" stop-opacity="0.92"/>
<stop offset="0.489583" stop-color="#7A7FF5"/>
<stop offset="1" stop-color="#ECECEC" stop-opacity="0.96"/>
</linearGradient>
<linearGradient id="paint8_linear_267_56" x1="55.8469" y1="55.782" x2="51.1183" y2="51.1964" gradientUnits="userSpaceOnUse">
<stop stop-color="#9248F0" stop-opacity="0.92"/>
<stop offset="0.489583" stop-color="#7A7FF5"/>
<stop offset="1" stop-color="#ECECEC" stop-opacity="0.96"/>
</linearGradient>
<linearGradient id="paint9_linear_267_56" x1="59.7202" y1="59.6075" x2="51.1974" y2="51.3263" gradientUnits="userSpaceOnUse">
<stop stop-color="#9248F0" stop-opacity="0.92"/>
<stop offset="0.489583" stop-color="#7A7FF5"/>
<stop offset="1" stop-color="#ECECEC" stop-opacity="0.96"/>
</linearGradient>
<clipPath id="clip0_267_56">
<rect width="60" height="60" fill="white"/>
</clipPath>
</defs>
</svg>
